<svg xmlns="http://www.w3.org/2000/svg" viewBox="0 0 512 512">
  <defs>
    <linearGradient id="bg" x1="0%" y1="0%" x2="100%" y2="100%">
      <stop offset="0%" stop-color="#5B5FEF"/>
      <stop offset="100%" stop-color="#7B7FFF"/>
    </linearGradient>
    <linearGradient id="glow" x1="0%" y1="0%" x2="100%" y2="100%">
      <stop offset="0%" stop-color="#9B9FFF"/>
      <stop offset="100%" stop-color="#C4C6FF"/>
    </linearGradient>
  </defs>
  <rect x="0" y="0" width="512" height="512" rx="108" ry="108" fill="url(#bg)"/>
  <rect x="8" y="8" width="496" height="496" rx="100" ry="100" fill="none" stroke="rgba(255,255,255,0.08)" stroke-width="2"/>
  <circle cx="370" cy="120" r="14" fill="rgba(255,255,255,0.25)"/>
  <circle cx="420" cy="170" r="10" fill="rgba(255,255,255,0.18)"/>
  <circle cx="390" cy="80" r="8" fill="rgba(255,255,255,0.15)"/>
  <circle cx="100" cy="390" r="12" fill="rgba(255,255,255,0.20)"/>
  <circle cx="140" cy="430" r="8" fill="rgba(255,255,255,0.15)"/>
  <circle cx="80" cy="350" r="6" fill="rgba(255,255,255,0.12)"/>
  <line x1="370" y1="120" x2="420" y2="170" stroke="rgba(255,255,255,0.12)" stroke-width="2"/>
  <line x1="370" y1="120" x2="390" y2="80" stroke="rgba(255,255,255,0.10)" stroke-width="1.5"/>
  <line x1="100" y1="390" x2="140" y2="430" stroke="rgba(255,255,255,0.10)" stroke-width="1.5"/>
  <line x1="100" y1="390" x2="80" y2="350" stroke="rgba(255,255,255,0.08)" stroke-width="1"/>
  <g transform="translate(128, 108)">
    <rect x="0" y="0" width="36" height="296" rx="6" fill="white"/>
    <rect x="36" y="0" width="140" height="36" rx="6" fill="white"/>
    <rect x="36" y="130" width="110" height="36" rx="6" fill="white"/>
    <rect x="36" y="260" width="140" height="36" rx="6" fill="white"/>
  </g>
  <circle cx="340" cy="256" r="18" fill="url(#glow)" opacity="0.9"/>
  <circle cx="340" cy="256" r="8" fill="white"/>
</svg>
